HIERARCHY
ROOT joint_Root
{
	OFFSET 0.0 0.0 0.0
	CHANNELS 6 Xposition Yposition Zposition Zrotation Xrotation Yrotation 
	JOINT Hips
	{
		OFFSET 4.5925 91.4895 -427.239
		CHANNELS 6 Xposition Yposition Zposition Zrotation Xrotation Yrotation 
		JOINT Spine
		{
			OFFSET 15.7357 0.0 0.0
			CHANNELS 6 Xposition Yposition Zposition Zrotation Xrotation Yrotation 
			JOINT Chest
			{
				OFFSET 8.98455 -0.406207 0.0
				CHANNELS 6 Xposition Yposition Zposition Zrotation Xrotation Yrotation 
				JOINT Neck
				{
					OFFSET 16.3773 0.0 0.0
					CHANNELS 6 Xposition Yposition Zposition Zrotation Xrotation Yrotation 
					JOINT Head
					{
						OFFSET 6.45672 0.0 0.0
						CHANNELS 6 Xposition Yposition Zposition Zrotation Xrotation Yrotation 
						End Site
						{
							OFFSET 0.0 0.0 0.0
						}
					}
				}
				JOINT Shoulder_L
				{
					OFFSET 12.9942 -0.242716 4.98039
					CHANNELS 6 Xposition Yposition Zposition Zrotation Xrotation Yrotation 
					JOINT UpperArm_L
					{
						OFFSET 5.34809 0.0 0.0
						CHANNELS 6 Xposition Yposition Zposition Zrotation Xrotation Yrotation 
						JOINT LowerArm_L
						{
							OFFSET 24.3286 1.87007e-05 0.0
							CHANNELS 6 Xposition Yposition Zposition Zrotation Xrotation Yrotation 
							JOINT Hand_L
							{
								OFFSET 22.2916 0.0 0.0
								CHANNELS 6 Xposition Yposition Zposition Zrotation Xrotation Yrotation 
								End Site
								{
									OFFSET 0.0 0.0 0.0
								}
							}
						}
					}
				}
				JOINT Shoulder_R
				{
					OFFSET 12.9945 -0.242716 -4.98039
					CHANNELS 6 Xposition Yposition Zposition Zrotation Xrotation Yrotation 
					JOINT UpperArm_R
					{
						OFFSET -5.34813 0.0 0.0
						CHANNELS 6 Xposition Yposition Zposition Zrotation Xrotation Yrotation 
						JOINT LowerArm_R
						{
							OFFSET -24.3289 0.000322201 0.0
							CHANNELS 6 Xposition Yposition Zposition Zrotation Xrotation Yrotation 
							JOINT Hand_R
							{
								OFFSET -22.2915 -0.000108084 0.0
								CHANNELS 6 Xposition Yposition Zposition Zrotation Xrotation Yrotation 
								End Site
								{
									OFFSET 0.0 0.0 0.0
								}
							}
						}
					}
				}
			}
		}
		JOINT UpperLeg_L
		{
			OFFSET -2.19248 -6.46944 0.0
			CHANNELS 6 Xposition Yposition Zposition Zrotation Xrotation Yrotation 
			JOINT LowerLeg_L
			{
				OFFSET 39.0811 0.0 -1.23785e-05
				CHANNELS 6 Xposition Yposition Zposition Zrotation Xrotation Yrotation 
				JOINT Foot_L
				{
					OFFSET 40.9854 0.0 -1.26872e-05
					CHANNELS 6 Xposition Yposition Zposition Zrotation Xrotation Yrotation 
					JOINT Toes_L
					{
						OFFSET 11.7543 0.0 0.0
						CHANNELS 6 Xposition Yposition Zposition Zrotation Xrotation Yrotation 
						End Site
						{
							OFFSET 0.0 0.0 0.0
						}
					}
				}
			}
		}
		JOINT UpperLeg_R
		{
			OFFSET -2.19251 6.46944 0.0
			CHANNELS 6 Xposition Yposition Zposition Zrotation Xrotation Yrotation 
			JOINT LowerLeg_R
			{
				OFFSET -39.0811 -0.00228153 -0.0401928
				CHANNELS 6 Xposition Yposition Zposition Zrotation Xrotation Yrotation 
				JOINT Foot_R
				{
					OFFSET -40.9854 0.0 0.0
					CHANNELS 6 Xposition Yposition Zposition Zrotation Xrotation Yrotation 
					JOINT Toes_R
					{
						OFFSET -11.7543 0.0 0.0
						CHANNELS 6 Xposition Yposition Zposition Zrotation Xrotation Yrotation 
						End Site
						{
							OFFSET 0.0 0.0 0.0
						}
					}
				}
			}
		}
	}
}
MOTION
Frames:	6
Frame Time:	0.0333333
0.000000 0.000000 0.000000 0.000000 0.000000 -0.000000 0.828920 84.676900 -1.460010 88.989600 -4.355230 9.540610 15.735700 0.000005 -0.000001 98.473000 81.453200 -97.754000 8.984550 -0.406207 -0.000000 9.132150 2.513620 1.236070 16.377300 -0.000001 -0.000001 -0.722419 -3.409770 1.082710 6.456720 -0.000001 -0.000000 -1.018520 -5.595140 1.583230 12.994200 -0.242716 4.980390 -92.077000 6.052570 -71.019200 5.348090 -0.000007 -0.000001 -70.413400 17.001100 -1.670230 24.328600 0.000019 0.000005 8.527130 22.955900 -21.028000 22.291600 -0.000001 0.000005 6.797260 5.218410 2.252010 12.994500 -0.242716 -4.980390 88.488400 10.142100 -81.477000 -5.348130 -0.000001 -0.000004 -59.906600 30.475400 -13.922800 -24.328900 0.000322 -0.000009 -0.573229 -1.375750 -22.584300 -22.291500 -0.000108 -0.000004 17.589000 5.418920 -3.562600 -2.192480 -6.469440 -0.000000 -174.003000 -14.972100 -13.011100 39.081100 -0.000007 -0.000012 -0.393230 0.273239 55.207200 40.985400 -0.000006 -0.000013 2.019140 5.492720 -82.274900 11.754300 -0.000000 0.000003 -0.000219 -0.001995 -16.652600 -2.192510 6.469440 -0.000001 176.958000 12.318300 166.208000 -39.081100 -0.002282 -0.040193 0.078380 -0.051731 55.459900 -40.985400 0.000008 0.000006 5.365620 3.179670 -81.353600 -11.754300 -0.000006 -0.000006 -1.009770 -1.255080 -16.794200
0.000000 0.000000 0.000000 0.000000 0.000000 -0.000000 1.827880 86.345400 -0.651665 89.786600 -8.059280 9.188440 15.735700 0.000005 -0.000001 98.295600 82.342700 -96.824200 8.984550 -0.406207 -0.000000 7.365890 2.196210 2.798530 16.377300 -0.000001 -0.000001 1.441120 -2.155260 0.464767 6.456720 -0.000001 -0.000000 1.113750 -3.526060 -0.914425 12.994200 -0.242716 4.980390 -91.763700 4.798340 -69.790400 5.348090 -0.000007 -0.000001 -65.744500 10.381700 -2.415260 24.328600 0.000019 0.000005 9.661620 23.164000 -23.402100 22.291600 -0.000001 0.000005 3.927820 5.221300 2.179440 12.994500 -0.242716 -4.980390 88.350000 9.898810 -80.487600 -5.348130 -0.000001 -0.000004 -60.325300 29.642500 -13.613500 -24.328900 0.000322 -0.000009 -0.261823 -0.636822 -22.268800 -22.291500 -0.000108 -0.000004 17.384800 5.407990 -3.198890 -2.192480 -6.469440 -0.000000 -175.510000 -16.541800 -9.407830 39.081100 -0.000007 -0.000012 -0.365346 0.315507 49.187500 40.985400 -0.000006 -0.000013 1.414390 3.186020 -80.240000 11.754300 -0.000000 0.000003 -0.000212 -0.001947 -16.650900 -2.192510 6.469440 -0.000001 175.442000 10.801400 168.334000 -39.081100 -0.002282 -0.040193 0.054690 -0.042622 50.357600 -40.985400 0.000008 0.000006 5.440330 5.993470 -78.829300 -11.754300 -0.000006 -0.000006 -0.938680 -1.159360 -17.047800
0.000000 0.000000 0.000000 0.000000 0.000000 -0.000000 2.535610 88.062500 -0.071832 90.199200 -10.644600 8.000350 15.735700 0.000005 -0.000001 98.884400 83.529000 -96.571500 8.984550 -0.406207 -0.000000 4.987970 1.938760 4.536270 16.377300 -0.000001 -0.000001 4.402870 -1.110550 -0.401974 6.456720 -0.000001 -0.000000 3.027680 -1.795970 -3.265040 12.994200 -0.242716 4.980390 -91.256300 3.234980 -68.762700 5.348090 -0.000007 -0.000001 -57.461400 0.517848 -7.677170 24.328600 0.000019 0.000005 11.770000 22.767400 -28.299500 22.291600 -0.000001 0.000005 8.396470 5.202510 2.655460 12.994500 -0.242716 -4.980390 88.263900 9.226520 -79.295500 -5.348130 -0.000001 -0.000004 -61.121300 29.086600 -11.711100 -24.328900 0.000322 -0.000009 -0.339267 -0.770782 -23.690200 -22.291500 -0.000108 -0.000004 16.502100 5.426800 -3.830170 -2.192480 -6.469440 -0.000000 -176.748000 -17.678500 -6.753410 39.081100 -0.000007 -0.000012 -0.314948 0.344454 42.438600 40.985400 -0.000006 -0.000013 1.088870 1.680450 -77.502800 11.754300 -0.000000 0.000003 -0.000201 -0.001856 -16.647600 -2.192510 6.469440 -0.000001 174.407000 11.266800 169.947000 -39.081100 -0.002282 -0.040193 0.037086 -0.034481 44.446100 -40.985400 0.000008 0.000006 5.507680 9.349500 -75.745200 -11.754300 -0.000006 -0.000006 -0.745871 -0.913398 -17.483300
0.000000 0.000000 0.000000 0.000000 0.000000 -0.000000 2.878330 89.328800 0.307065 90.499900 -12.219300 7.124090 15.735700 0.000005 -0.000001 99.833000 84.521400 -96.967600 8.984550 -0.406207 -0.000000 2.994130 1.750180 5.679120 16.377300 -0.000001 -0.000001 6.944230 -0.758403 -0.560289 6.456720 -0.000001 -0.000000 4.797150 -1.217280 -4.558110 12.994200 -0.242716 4.980390 -90.695000 1.805000 -68.937000 5.348090 -0.000007 -0.000001 -47.867600 -11.538700 -15.673700 24.328600 0.000019 0.000005 10.165800 14.794400 -35.080700 22.291600 -0.000001 0.000005 14.220100 5.235570 1.814590 12.994500 -0.242716 -4.980390 88.218000 8.873170 -78.596700 -5.348130 -0.000001 -0.000004 -61.508700 28.754200 -9.254930 -24.328900 0.000322 -0.000009 -0.956931 -2.020310 -25.325700 -22.291500 -0.000108 -0.000004 15.368500 5.448690 -4.593190 -2.192480 -6.469440 -0.000000 -177.531000 -18.535400 -4.551360 39.081100 -0.000007 -0.000012 -0.240916 0.322698 36.744300 40.985400 -0.000006 -0.000013 0.939000 0.988341 -75.028500 11.754300 -0.000000 0.000003 -0.000196 -0.001820 -16.646200 -2.192510 6.469440 -0.000001 173.685000 12.421600 171.643000 -39.081100 -0.002282 -0.040193 0.024822 -0.026361 39.254400 -40.985400 0.000008 0.000006 5.522160 12.127200 -73.587900 -11.754300 -0.000006 -0.000006 -0.269818 -0.340428 -17.615200
0.000000 0.000000 0.000000 0.000000 0.000000 -0.000000 2.935490 89.985400 0.503096 90.432700 -12.682200 6.840010 15.735700 0.000005 -0.000001 96.864100 84.941000 -93.730100 8.984550 -0.406207 -0.000000 2.258540 1.057950 6.241120 16.377300 -0.000001 -0.000001 7.754870 -0.868273 -0.272282 6.456720 -0.000001 -0.000000 5.667110 -1.219980 -4.406930 12.994200 -0.242716 4.980390 -89.990000 -0.028223 -70.305000 5.348090 -0.000007 -0.000001 -38.083200 -24.297200 -24.225600 24.328600 0.000019 0.000005 10.747700 10.833200 -45.284000 22.291600 -0.000001 0.000005 17.712500 5.309090 -0.182573 12.994500 -0.242716 -4.980390 88.104400 9.173440 -78.272100 -5.348130 -0.000001 -0.000004 -60.423300 29.392000 -8.455860 -24.328900 0.000322 -0.000009 -1.457620 -2.950780 -26.286600 -22.291500 -0.000108 -0.000004 15.448400 5.451150 -4.680880 -2.192480 -6.469440 -0.000000 -177.736000 -17.989100 -3.101180 39.081100 -0.000007 -0.000012 -0.206560 0.311623 33.538800 40.985400 -0.000006 -0.000013 0.686391 0.279681 -73.607100 11.754300 -0.000000 0.000003 -0.000162 -0.001550 -16.636400 -2.192510 6.469440 -0.000001 173.645000 12.748700 173.337000 -39.081100 -0.002282 -0.040193 0.018084 -0.020590 35.699400 -40.985400 0.000008 0.000006 5.375060 12.994600 -72.782900 -11.754300 -0.000006 -0.000006 -0.001482 -0.022028 -17.468800
0.000000 0.000000 0.000000 0.000000 0.000000 -0.000000 3.010370 90.252200 0.565055 90.148200 -12.673500 6.805630 15.735700 0.000005 -0.000001 90.471000 85.002300 -87.123300 8.984550 -0.406207 -0.000000 2.240260 -0.079053 6.690470 16.377300 -0.000001 -0.000001 7.569450 -1.029790 -0.565190 6.456720 -0.000001 -0.000000 5.538830 -1.386070 -3.257160 12.994200 -0.242716 4.980390 -89.254700 -2.268330 -71.803800 5.348090 -0.000007 -0.000001 -30.407400 -38.114200 -32.684800 24.328600 0.000019 0.000005 11.232500 8.302940 -53.978000 22.291600 -0.000001 0.000005 19.724600 5.359160 -1.650700 12.994500 -0.242716 -4.980390 87.977500 9.704390 -78.167900 -5.348130 -0.000001 -0.000004 -58.176600 30.029900 -9.099140 -24.328900 0.000322 -0.000009 -1.047850 -2.130310 -26.175800 -22.291500 -0.000108 -0.000004 16.434300 5.444200 -4.433690 -2.192480 -6.469440 -0.000000 -177.831000 -16.657100 -2.526940 39.081100 -0.000007 -0.000012 -0.199459 0.315328 32.315500 40.985400 -0.000006 -0.000013 0.384027 -0.933373 -73.034200 11.754300 -0.000000 0.000003 -0.000182 -0.001709 -16.642200 -2.192510 6.469440 -0.000001 173.866000 12.528700 174.421000 -39.081100 -0.002282 -0.040193 -0.012653 0.023827 33.792600 -40.985400 0.000008 0.000006 4.817170 12.922000 -72.326700 -11.754300 -0.000006 -0.000006 -0.001317 -0.019818 -17.379000
